<?xml version="1.0" encoding="utf-8"?>
<!-- Generator: Adobe Illustrator 22.0.1, SVG Export Plug-In . SVG Version: 6.00 Build 0)  -->
<svg version="1.1" id="Layer_1" xmlns="http://www.w3.org/2000/svg" xmlns:xlink="http://www.w3.org/1999/xlink" x="0px" y="0px"
	 viewBox="0 0 600 500" style="enable-background:new 0 0 600 500;" xml:space="preserve">
<style type="text/css">
	.st0{fill:#564910;}
	.st1{fill:#FFD833;}
</style>
<path class="st0" d="M58.5,16.9c0,0,1.4,113,4.2,178c2.8,65,12.7,305.1,12.7,305.1c316.4-5,316.3-6.1,305.1-5.6
	c36.7-1.4,169.5-8.5,169.5-8.5s-17-176.7-22.6-298c-5.6-121.5-5.6-170.9-5.6-170.9H58.5z"/>
<path class="st1" d="M50,0c0,0,1.4,113,4.2,178c2.8,65,12.7,305.1,12.7,305.1s268.4-4.2,305.1-5.6c36.7-1.4,169.5-8.5,169.5-8.5
	s-12.7-176.6-15.5-298C523.2,49.4,521.8,0,521.8,0H50z"/>
</svg>
