<?xml version="1.0" encoding="utf-8"?>
<!-- Generator: Adobe Illustrator 22.0.1, SVG Export Plug-In . SVG Version: 6.00 Build 0)  -->
<svg version="1.1" id="Layer_1" xmlns="http://www.w3.org/2000/svg" xmlns:xlink="http://www.w3.org/1999/xlink" x="0px" y="0px"
	 viewBox="0 0 600 500" style="enable-background:new 0 0 600 500;" xml:space="preserve">
<style type="text/css">
	.st0{display:none;fill:#FFD833;}
	.st1{fill:#776518;}
	.st2{fill:#564910;}
	.st3{fill:#FFD833;}
	.st4{fill:#C9C9C9;stroke:#000000;stroke-width:2;stroke-miterlimit:10;}
	.st5{fill:#334980;stroke:#000000;stroke-width:2;stroke-miterlimit:10;}
	.st6{fill:#2E498A;stroke:#000000;stroke-width:2;stroke-miterlimit:10;}
	.st7{fill:#3F59A8;stroke:#000000;stroke-width:2;stroke-miterlimit:10;}
	.st8{fill:#5E71A5;stroke:#000000;stroke-width:2;stroke-miterlimit:10;}
</style>
<rect x="50" class="st0" width="470" height="470"/>
<polyline class="st1" points="50,0 532,0 541,10 541,491 "/>
<polyline class="st2" points="541,491 60,491 50,482 50,0 "/>
<rect x="50" class="st3" width="482" height="482"/>
<g id="Layer_2_1_">
	<g id="Layer_1-2">
		<path class="st4" d="M226.2,126.2c-2.9,1.3-4.5,4.5-3.8,7.7"/>
		<path class="st4" d="M258.8,186l8.4,37.5c0,0-15.5,8.6-24.8,9.7c-9.3,1.1-35,2.1-44.9,0.4s-22.3-5.4-22.3-5.4s-24.3-6.6-27.2-8.8
			c-3.4-2.5-6.3-5.6-8.6-9.2c-0.6-3.8-0.6-7.7,0.2-11.5c-4.5-8.5-5.2-18.5-2-27.6c4.6-12,11.9-22.9,21.3-31.7c3-2.8,6.2-5.4,9.5-7.9
			l8.5-13.3c2.9-3.6,6.2-6.8,9.9-9.5c3.8-2,22.4-10.9,22.4-10.9c2.5-0.8,5.1-1,7.7-0.4c4.7,0.8,15.8,3.8,15.8,3.8l5.1,28.9
			c0,0-0.3,6.8-3.8,6.6c-4-0.1-7.9-1.1-11.5-2.8c-6,0-7,0.9-10.5,0.7c-3.3-0.4-6.5-1.1-9.6-2l-6.9,12.4c0,0,2.3,22.1-0.8,28.1
			s-8.9,19.9-8.9,19.9s14.8-17.8,18.3-18.3c10.8-1.7,21.9-1.2,32.6,1.3C244.7,177.7,252.2,181.1,258.8,186z"/>
		<path class="st4" d="M205.3,116.4c0,0-6.9,0-3.8,4.7c3.1,4.7,27.1,7.1,35.5,3"/>
		<path class="st4" d="M211.8,111.6c2.1,4.5,3.4,9.3,3.8,14.2"/>
		<path class="st4" d="M221,112.1c0,0,3.3,11.2,2.2,14.2"/>
		<path class="st4" d="M227.1,110.9c0,0,3.8,10,2.3,15.1"/>
		<path class="st5" d="M170.6,230.3l195.2-83.5c0.7-0.3,1.3-0.5,2-0.6l28.7-4.4h1.3h4.5c1.3,0,2.6,0.3,3.8,0.9l32.7,16.7
			c1,0.5,1.9,1.3,2.7,2.1l5.9,7.2c0.6,0.7,1.2,1.3,2,1.7l1.2,0.8c1.6,1,2.7,2.6,3.3,4.4l1.6,4.6c0.4,1,0.5,2.1,0.5,3.2l-2.1,37
			c-0.1,2.5-1.4,4.8-3.4,6.2l-40.1,29.5l-0.5,0.3L271,344.4l-49,27.9l-0.6,0.3l-38.9,17.8c-2.7,1.2-5.8,1-8.2-0.7L129.2,359
			c-3.2-2.2-4.5-6.2-3.1-9.9l2.5-6.6c0.2-0.6,0.5-1.2,0.9-1.7l4.9-7.4c0.4-0.6,0.9-1.2,1.5-1.7l9-7.7l0.7-0.6l18.2-12.6
			c4.8-3.3,33.4-18.9,28.6-22.3l-38.9-4.2c-2.5-1.7-5.7-0.4-5.4-3.5l1.7-17.1c0.1-1.2,0.5-2.4,1.1-3.4l15.9-26.8
			C167.6,232.3,169,231,170.6,230.3z"/>
		<polygon class="st6" points="418.7,238.2 278,324.7 204.6,364.8 194,371.7 133.3,335.1 138.4,327.8 173.4,305 288,226.9 
			365.2,211.5 		"/>
		<path class="st4" d="M180.4,309.1l20.8,13.5c0.5,0.4,1.2,0.4,1.6,0l3.8-3.3h0.3l167.9-94.7c0.4-0.2,0.6-0.6,0.7-1l1.5-9.6
			c0.1-0.8-0.4-1.5-1.2-1.6c-0.3,0-0.6,0-0.8,0.1l-194.5,94.2c-0.7,0.3-1,1.2-0.6,1.9C180.1,308.8,180.2,309,180.4,309.1z"/>
		<path class="st7" d="M152.3,288l27.5,18.9c1.8,1.2,4,1.9,6.2,1.9h2.4c1.6,0,3.1-0.3,4.6-1l109.5-50.7l72.5-37.7l66.4-32.4
			c3.7-1.8,6.1-5.6,6.1-9.8v-4.8c0-2.2-0.7-4.3-1.9-6.1l-2.8-4.1c-1-1.5-2.3-2.7-3.8-3.5l-30.7-16c-2-1-4.3-1.4-6.6-1.1l-39.5,5.6
			c-0.7,0.1-1.3,0.3-2,0.5l-97,33.2c-0.5,0.2-1,0.4-1.4,0.6l-84,42.8c-0.9,0.4-1.7,1-2.4,1.6l-10.6,9.6c-0.9,0.8-1.6,1.8-2.2,2.8
			l-11.5,21.2c-0.7,1.2-1.1,2.5-1.3,3.8l-1.9,14.1C147.2,281.7,149,285.7,152.3,288z"/>
		<path class="st8" d="M368.7,254.7l5.9-34.7c0-0.1,0-0.3,0-0.4l2.6-6.8c0.1-0.3,0.3-0.6,0.6-0.8l9.5-8.4l0.3-0.2l46.6-29.4h0.3
			l10-4.2c0.5-0.2,1.2-0.2,1.7,0l5.9,2.8c0.5,0.2,0.9,0.7,1.1,1.2l2.4,7c0,0.3,0,0.5,0,0.8l-1.4,41.2c0,0.8-0.5,1.5-1.3,1.8
			l-36,14.4l0,0l-38,17.9c-0.3,0.1-0.6,0.2-0.9,0.2h-7.2c-1.1,0-2.1-0.9-2-2.1C368.7,254.8,368.7,254.7,368.7,254.7z"/>
		<path class="st4" d="M343.3,165.4c2.5,2,3.2,5.5,1.8,8.4"/>
		<path class="st4" d="M297.5,215.8l-17,34.5c0,0,13,12,21.6,15.1c8.6,3.1,33.5,10.4,43.5,11s23,0,23,0s25.2-0.7,28.5-2.1
			c3.9-1.5,7.5-3.7,10.5-6.6c1.5-3.6,2.4-7.5,2.5-11.5c6.4-7.1,9.5-16.6,8.6-26.2c-1.6-12.8-6.1-25-13.2-35.8
			c-2.3-3.4-4.7-6.7-7.4-9.9l-5.1-14.9c-1.9-4.1-4.4-8-7.4-11.5c-3.2-2.9-19.2-16-19.2-16c-2.2-1.4-4.8-2.1-7.4-2.2
			c-4.8-0.3-16.3,0-16.3,0l-11.8,26.8c0,0-1.3,6.7,2.2,7.4c3.9,0.8,7.9,0.8,11.8,0c5.8,1.6,6.6,2.6,10,3.2c3.3,0.4,6.5,0.5,9.8,0.3
			l3.8,13.7c0,0-7.7,20.9-5.8,27.5s3.8,21.4,3.8,21.4s-10.2-20.8-13.4-22c-10.1-4.2-21-6.4-31.9-6.4
			C313.3,211.3,305.1,212.7,297.5,215.8z"/>
		<path class="st4" d="M366,160.9c0,0,6.7,1.7,2.6,5.5c-4.1,3.8-28,0.5-35.2-5.5"/>
		<path class="st4" d="M360.7,154.7c-3.1,3.9-5.5,8.2-7.1,12.8"/>
		<path class="st4" d="M351.7,152.9c0,0-5.8,10.2-5.4,13.3"/>
		<path class="st4" d="M346.2,150.4c0,0-6,8.8-5.8,14.1"/>
	</g>
</g>
</svg>
