<svg xmlns="http://www.w3.org/2000/svg" viewBox="0 0 87.2 77.74"><defs><style>.cls-1{fill:#c9c9c9;}.cls-1,.cls-2,.cls-3,.cls-4,.cls-5{stroke:#000;stroke-miterlimit:10;}.cls-2{fill:#334980;}.cls-3{fill:#2e498a;}.cls-4{fill:#3f59a8;}.cls-5{fill:#5e71a5;}</style></defs><title>Asset 12br</title><g id="Layer_2" data-name="Layer 2"><g id="Layer_1-2" data-name="Layer 1"><path class="cls-1" d="M26.78,8.1a1.78,1.78,0,0,0-1,2"/><path class="cls-1" d="M35.28,23.69l2.18,9.79S33.42,35.72,31,36s-9.14.56-11.7.1-5.82-1.42-5.82-1.42-6.33-1.72-7.09-2.29A8.43,8.43,0,0,1,4.16,30a8.41,8.41,0,0,1,.05-3,8.91,8.91,0,0,1-.51-7.2,21.92,21.92,0,0,1,5.55-8.26,31.36,31.36,0,0,1,2.47-2.06L13.94,6a13.47,13.47,0,0,1,2.58-2.49C17.51,3,22.36.68,22.36.68a3.83,3.83,0,0,1,2-.11c1.23.21,4.13,1,4.13,1l1.34,7.53s-.09,1.78-1,1.73a7.63,7.63,0,0,1-3-.73c-1.56,0-1.83.24-2.73.19a14.81,14.81,0,0,1-2.51-.52L18.78,13s.61,5.77-.21,7.32-2.33,5.19-2.33,5.19,3.87-4.63,4.76-4.76a21.81,21.81,0,0,1,8.49.35A15,15,0,0,1,35.28,23.69Z"/><path class="cls-1" d="M21.31,5.55s-1.81,0-1,1.23,7.06,1.85,9.26.77"/><path class="cls-1" d="M23,4.3a11.48,11.48,0,0,1,1,3.7"/><path class="cls-1" d="M25.42,4.41s.85,2.93.57,3.7"/><path class="cls-1" d="M27,4.1s1,2.61.6,3.94"/><path class="cls-2" d="M12.27,35.26,63.19,13.49a2.19,2.19,0,0,1,.53-.15l7.49-1.15.33,0h1.17a2.19,2.19,0,0,1,1,.24l8.53,4.35a2.19,2.19,0,0,1,.7.56l1.53,1.87a2.19,2.19,0,0,0,.51.45l.32.2A2.19,2.19,0,0,1,86.17,21l.41,1.19a2.19,2.19,0,0,1,.12.84l-.54,9.64a2.19,2.19,0,0,1-.88,1.63L74.81,42l-.13.09L38.45,65,25.67,72.27l-.16.08L15.36,77a2.19,2.19,0,0,1-2.14-.18l-11.76-8a2.19,2.19,0,0,1-.82-2.57l.64-1.71a2.19,2.19,0,0,1,.23-.44L2.8,62.18a2.19,2.19,0,0,1,.39-.44l2.35-2,.19-.15,4.75-3.28c1.26-.87,8.71-4.94,7.45-5.81L7.78,49.4c-.66-.45-1.48-.11-1.4-.9l.44-4.45a2.19,2.19,0,0,1,.29-.89l4.14-7A2.19,2.19,0,0,1,12.27,35.26Z"/><polygon class="cls-3" points="76.97 37.31 40.28 59.86 21.14 70.33 18.36 72.12 2.54 62.57 3.87 60.67 12.99 54.72 42.88 34.36 63.01 30.34 76.97 37.31"/><path class="cls-1" d="M14.83,55.8l5.42,3.52a.36.36,0,0,0,.43,0l1-.87.07,0L65.53,33.75a.36.36,0,0,0,.18-.25L66.11,31a.36.36,0,0,0-.51-.38L14.87,55.18A.36.36,0,0,0,14.83,55.8Z"/><path class="cls-4" d="M7.5,50.31l7.17,4.94a2.84,2.84,0,0,0,1.61.5h.63a2.84,2.84,0,0,0,1.19-.26L46.66,42.27l18.9-9.83L82.87,24a2.84,2.84,0,0,0,1.6-2.55V20.21a2.84,2.84,0,0,0-.5-1.6l-.74-1.08a2.84,2.84,0,0,0-1-.92l-8-4.17a2.84,2.84,0,0,0-1.71-.29l-10.3,1.47a2.84,2.84,0,0,0-.52.13L36.39,22.42a2.84,2.84,0,0,0-.37.15L14.1,33.72a2.84,2.84,0,0,0-.62.43l-2.77,2.51a2.84,2.84,0,0,0-.58.74l-3,5.54a2.84,2.84,0,0,0-.33,1L6.3,47.61A2.84,2.84,0,0,0,7.5,50.31Z"/><path class="cls-5" d="M63.93,41.6l1.55-9.06a.54.54,0,0,1,0-.1l.68-1.78a.54.54,0,0,1,.15-.21l2.47-2.2.07-.05L81,20.54l.08,0,2.61-1.1a.54.54,0,0,1,.44,0l1.53.73a.54.54,0,0,1,.28.31l.63,1.82a.54.54,0,0,1,0,.2L86.2,33.25a.54.54,0,0,1-.34.48l-9.4,3.76h0l-9.9,4.67a.54.54,0,0,1-.23.05H64.46A.54.54,0,0,1,63.93,41.6Z"/><path class="cls-1" d="M57.31,18.32a1.78,1.78,0,0,1,.46,2.18"/><path class="cls-1" d="M45.37,31.46l-4.43,9s3.39,3.13,5.64,3.93,8.74,2.7,11.35,2.86,6,0,6,0,6.56-.17,7.43-.54A8.43,8.43,0,0,0,74.11,45,8.41,8.41,0,0,0,74.77,42,8.91,8.91,0,0,0,77,35.17a21.92,21.92,0,0,0-3.44-9.33,31.36,31.36,0,0,0-1.92-2.58l-1.33-3.89a13.47,13.47,0,0,0-1.92-3c-.83-.75-5-4.17-5-4.17a3.83,3.83,0,0,0-1.92-.58c-1.25-.08-4.25,0-4.25,0l-3.08,7s-.33,1.75.58,1.92a7.63,7.63,0,0,0,3.08,0c1.5.42,1.72.67,2.61.83a14.81,14.81,0,0,0,2.56.08l1,3.58s-2,5.46-1.52,7.16,1,5.59,1,5.59-2.67-5.42-3.5-5.75a21.81,21.81,0,0,0-8.33-1.66A15,15,0,0,0,45.37,31.46Z"/><path class="cls-1" d="M63.23,17.15s1.76.44.69,1.44-7.3.13-9.18-1.44"/><path class="cls-1" d="M61.86,15.52A11.48,11.48,0,0,0,60,18.87"/><path class="cls-1" d="M59.5,15.06S58,17.71,58.08,18.52"/><path class="cls-1" d="M58.07,14.4s-1.56,2.3-1.51,3.68"/></g></g></svg>